<mxfile host="app.diagrams.net" modified="2023-04-26T21:56:05.302Z" agent="Mozilla/5.0 (Macintosh; Intel Mac OS X 10.15; rv:109.0) Gecko/20100101 Firefox/112.0" etag="a_Fd6hCJzITF2w8Snae4" version="21.2.2" type="google">
  <diagram name="Pagina-1" id="IypbzBaWQCHjrO9yA9g_">
    <mxGraphModel grid="1" page="1" gridSize="10" guides="1" tooltips="1" connect="1" arrows="1" fold="1" pageScale="1" pageWidth="827" pageHeight="1169" math="0" shadow="0">
      <root>
        <mxCell id="0" />
        <mxCell id="1" parent="0" />
        <mxCell id="dSC4Ic8L_6rmTVrzaYGO-1" value="calcoloMedia" style="text;html=1;align=center;verticalAlign=middle;resizable=0;points=[];autosize=1;strokeColor=none;fillColor=none;" vertex="1" parent="1">
          <mxGeometry x="25" y="58" width="90" height="30" as="geometry" />
        </mxCell>
        <mxCell id="dSC4Ic8L_6rmTVrzaYGO-4" value="" style="edgeStyle=orthogonalEdgeStyle;rounded=0;orthogonalLoop=1;jettySize=auto;html=1;" edge="1" parent="1" source="dSC4Ic8L_6rmTVrzaYGO-2" target="dSC4Ic8L_6rmTVrzaYGO-3">
          <mxGeometry relative="1" as="geometry" />
        </mxCell>
        <mxCell id="dSC4Ic8L_6rmTVrzaYGO-2" value="Start" style="ellipse;whiteSpace=wrap;html=1;" vertex="1" parent="1">
          <mxGeometry x="354" y="40" width="120" height="80" as="geometry" />
        </mxCell>
        <mxCell id="dSC4Ic8L_6rmTVrzaYGO-6" value="" style="edgeStyle=orthogonalEdgeStyle;rounded=0;orthogonalLoop=1;jettySize=auto;html=1;" edge="1" parent="1" source="dSC4Ic8L_6rmTVrzaYGO-3" target="dSC4Ic8L_6rmTVrzaYGO-5">
          <mxGeometry relative="1" as="geometry" />
        </mxCell>
        <mxCell id="dSC4Ic8L_6rmTVrzaYGO-3" value="float sommaVoti = 0;" style="rounded=0;whiteSpace=wrap;html=1;" vertex="1" parent="1">
          <mxGeometry x="354" y="160" width="120" height="60" as="geometry" />
        </mxCell>
        <mxCell id="dSC4Ic8L_6rmTVrzaYGO-7" style="edgeStyle=orthogonalEdgeStyle;rounded=0;orthogonalLoop=1;jettySize=auto;html=1;entryX=0.5;entryY=0;entryDx=0;entryDy=0;" edge="1" parent="1" source="dSC4Ic8L_6rmTVrzaYGO-5" target="dSC4Ic8L_6rmTVrzaYGO-10">
          <mxGeometry relative="1" as="geometry">
            <mxPoint x="281" y="330" as="targetPoint" />
            <Array as="points">
              <mxPoint x="281" y="310" />
              <mxPoint x="281" y="350" />
            </Array>
          </mxGeometry>
        </mxCell>
        <mxCell id="dSC4Ic8L_6rmTVrzaYGO-22" value="True" style="edgeLabel;html=1;align=center;verticalAlign=middle;resizable=0;points=[];" connectable="0" vertex="1" parent="dSC4Ic8L_6rmTVrzaYGO-7">
          <mxGeometry x="-0.5455" y="-2" relative="1" as="geometry">
            <mxPoint as="offset" />
          </mxGeometry>
        </mxCell>
        <mxCell id="dSC4Ic8L_6rmTVrzaYGO-8" style="edgeStyle=orthogonalEdgeStyle;rounded=0;orthogonalLoop=1;jettySize=auto;html=1;" edge="1" parent="1" source="dSC4Ic8L_6rmTVrzaYGO-5">
          <mxGeometry relative="1" as="geometry">
            <mxPoint x="440" y="440" as="targetPoint" />
            <Array as="points">
              <mxPoint x="561" y="310" />
              <mxPoint x="561" y="440" />
            </Array>
          </mxGeometry>
        </mxCell>
        <mxCell id="dSC4Ic8L_6rmTVrzaYGO-23" value="False" style="edgeLabel;html=1;align=center;verticalAlign=middle;resizable=0;points=[];" connectable="0" vertex="1" parent="dSC4Ic8L_6rmTVrzaYGO-8">
          <mxGeometry x="-0.7212" y="3" relative="1" as="geometry">
            <mxPoint as="offset" />
          </mxGeometry>
        </mxCell>
        <mxCell id="dSC4Ic8L_6rmTVrzaYGO-5" value="numStudenti==0" style="rhombus;whiteSpace=wrap;html=1;" vertex="1" parent="1">
          <mxGeometry x="346" y="270" width="136" height="80" as="geometry" />
        </mxCell>
        <mxCell id="dSC4Ic8L_6rmTVrzaYGO-11" style="edgeStyle=orthogonalEdgeStyle;rounded=0;orthogonalLoop=1;jettySize=auto;html=1;" edge="1" parent="1" source="dSC4Ic8L_6rmTVrzaYGO-10" target="dSC4Ic8L_6rmTVrzaYGO-12">
          <mxGeometry relative="1" as="geometry">
            <mxPoint x="400" y="440" as="targetPoint" />
            <Array as="points">
              <mxPoint x="280" y="445" />
            </Array>
          </mxGeometry>
        </mxCell>
        <mxCell id="dSC4Ic8L_6rmTVrzaYGO-10" value="return 0" style="shape=parallelogram;perimeter=parallelogramPerimeter;whiteSpace=wrap;html=1;fixedSize=1;" vertex="1" parent="1">
          <mxGeometry x="226" y="350" width="120" height="50" as="geometry" />
        </mxCell>
        <mxCell id="dSC4Ic8L_6rmTVrzaYGO-14" value="" style="edgeStyle=orthogonalEdgeStyle;rounded=0;orthogonalLoop=1;jettySize=auto;html=1;" edge="1" parent="1" source="dSC4Ic8L_6rmTVrzaYGO-12" target="dSC4Ic8L_6rmTVrzaYGO-13">
          <mxGeometry relative="1" as="geometry" />
        </mxCell>
        <mxCell id="dSC4Ic8L_6rmTVrzaYGO-12" value="" style="ellipse;whiteSpace=wrap;html=1;aspect=fixed;" vertex="1" parent="1">
          <mxGeometry x="370" y="410" width="70" height="70" as="geometry" />
        </mxCell>
        <mxCell id="dSC4Ic8L_6rmTVrzaYGO-16" value="" style="edgeStyle=orthogonalEdgeStyle;rounded=0;orthogonalLoop=1;jettySize=auto;html=1;" edge="1" parent="1" source="dSC4Ic8L_6rmTVrzaYGO-13" target="dSC4Ic8L_6rmTVrzaYGO-15">
          <mxGeometry relative="1" as="geometry" />
        </mxCell>
        <mxCell id="dSC4Ic8L_6rmTVrzaYGO-18" style="edgeStyle=orthogonalEdgeStyle;rounded=0;orthogonalLoop=1;jettySize=auto;html=1;" edge="1" parent="1" source="dSC4Ic8L_6rmTVrzaYGO-13" target="dSC4Ic8L_6rmTVrzaYGO-19">
          <mxGeometry relative="1" as="geometry">
            <mxPoint x="600" y="710" as="targetPoint" />
          </mxGeometry>
        </mxCell>
        <mxCell id="dSC4Ic8L_6rmTVrzaYGO-13" value="int i = 0; i &amp;lt;numStudenti;i++" style="shape=hexagon;perimeter=hexagonPerimeter2;whiteSpace=wrap;html=1;fixedSize=1;" vertex="1" parent="1">
          <mxGeometry x="312.5" y="520" width="185" height="55" as="geometry" />
        </mxCell>
        <mxCell id="dSC4Ic8L_6rmTVrzaYGO-17" style="edgeStyle=orthogonalEdgeStyle;rounded=0;orthogonalLoop=1;jettySize=auto;html=1;" edge="1" parent="1" source="dSC4Ic8L_6rmTVrzaYGO-15">
          <mxGeometry relative="1" as="geometry">
            <mxPoint x="310" y="550" as="targetPoint" />
            <Array as="points">
              <mxPoint x="241" y="650" />
              <mxPoint x="241" y="550" />
              <mxPoint x="310" y="550" />
            </Array>
          </mxGeometry>
        </mxCell>
        <mxCell id="dSC4Ic8L_6rmTVrzaYGO-15" value="sommaVoti +=elencoStudenti[i].getVotoMedio()" style="rounded=0;whiteSpace=wrap;html=1;" vertex="1" parent="1">
          <mxGeometry x="302.5" y="620" width="205" height="60" as="geometry" />
        </mxCell>
        <mxCell id="dSC4Ic8L_6rmTVrzaYGO-21" value="" style="edgeStyle=orthogonalEdgeStyle;rounded=0;orthogonalLoop=1;jettySize=auto;html=1;" edge="1" parent="1" source="dSC4Ic8L_6rmTVrzaYGO-19" target="dSC4Ic8L_6rmTVrzaYGO-20">
          <mxGeometry relative="1" as="geometry" />
        </mxCell>
        <mxCell id="dSC4Ic8L_6rmTVrzaYGO-19" value="&lt;div&gt;return&lt;/div&gt;&lt;div&gt;elencoStudenti&lt;br&gt;&lt;/div&gt;" style="shape=parallelogram;perimeter=parallelogramPerimeter;whiteSpace=wrap;html=1;fixedSize=1;" vertex="1" parent="1">
          <mxGeometry x="540" y="680" width="120" height="60" as="geometry" />
        </mxCell>
        <mxCell id="dSC4Ic8L_6rmTVrzaYGO-20" value="end" style="ellipse;whiteSpace=wrap;html=1;" vertex="1" parent="1">
          <mxGeometry x="540" y="780" width="120" height="80" as="geometry" />
        </mxCell>
      </root>
    </mxGraphModel>
  </diagram>
</mxfile>
